<svg id="Слой_1" data-name="Слой 1" xmlns="http://www.w3.org/2000/svg" xmlns:xlink="http://www.w3.org/1999/xlink" viewBox="0 0 2041.85 1024">
  <defs>
    <style>
      .cls-1 {
        fill: #fff;
      }

      .cls-2 {
        fill: url(#Безымянный_градиент_66);
      }
    </style>
    <linearGradient id="Безымянный_градиент_66" data-name="Безымянный градиент 66" x1="512" y1="800" x2="512" y2="224" gradientUnits="userSpaceOnUse">
      <stop offset="0" stop-color="#25344a"/>
      <stop offset="1" stop-color="#63bead"/>
    </linearGradient>
  </defs>
  <title>aber-logo-wide-dark</title>
  <path class="cls-1" d="M512,1024c155.86,0,295.44-69.65,389.35-179.51L839.3,817.9C757.54,905.34,641.15,960,512,960S266.46,905.34,184.7,817.9l-62,26.59C216.56,954.35,356.14,1024,512,1024Z" transform="translate(0)"/>
  <path class="cls-1" d="M64,512C64,264.58,264.58,64,512,64S960,264.58,960,512a449,449,0,0,1-12.52,105.58l50.3,56.59A511.64,511.64,0,0,0,1024,512C1024,229.23,794.77,0,512,0S0,229.23,0,512A511.64,511.64,0,0,0,26.22,674.17l50.3-56.59A449,449,0,0,1,64,512Z" transform="translate(0)"/>
  <polygon class="cls-2" points="0 800 64 800 512 608 960 800 1024 800 512 224 0 800"/>
  <polygon class="cls-1" points="0 800 64 800 512 608 960 800 1024 800 512 224 0 800"/>
  <polygon class="cls-1" points="357.53 301.45 469.47 175.52 426.65 127.35 305.12 264.08 357.53 301.45"/>
  <polygon class="cls-1" points="262.35 312.19 140.81 448.92 202.82 475.49 314.76 349.56 262.35 312.19"/>
  <g>
    <path class="cls-1" d="M1200.38,393.84H1178.5V320.37h-23.68V302.45h69.24v17.92h-23.68Z" transform="translate(0)"/>
    <path class="cls-1" d="M1257.6,313.59q0,6.39-.38,11.45t-.64,7.23h1.15a21.58,21.58,0,0,1,5.25-5.76,20.2,20.2,0,0,1,6.65-3.2,32.21,32.21,0,0,1,20.93,1.67,19.69,19.69,0,0,1,8.9,8.38q3.19,5.7,3.2,14.79v45.69H1281V354q0-7.29-2.43-11t-7.55-3.72q-5.11,0-8.06,2.63a14.39,14.39,0,0,0-4.16,7.55,52.14,52.14,0,0,0-1.22,12.35v32H1236V296.56h21.63Z" transform="translate(0)"/>
    <path class="cls-1" d="M1351.17,322.29a37.45,37.45,0,0,1,17.15,3.65,26,26,0,0,1,11.14,10.75q4,7.11,4,17.6v10H1339a15.71,15.71,0,0,0,4.48,11.08q4.21,4.15,12,4.16a51.8,51.8,0,0,0,12.22-1.35A57.78,57.78,0,0,0,1379.2,374v16a41.66,41.66,0,0,1-11,3.91,73.77,73.77,0,0,1-14.59,1.21,43.94,43.94,0,0,1-18.75-3.84,28.6,28.6,0,0,1-12.93-11.84q-4.68-8-4.67-20.29,0-12.54,4.29-20.73a27.72,27.72,0,0,1,11.9-12.16A37.78,37.78,0,0,1,1351.17,322.29Zm.38,15a11.49,11.49,0,0,0-8.19,3.13q-3.33,3.14-4,9.92h24.19a15.92,15.92,0,0,0-1.34-6.65,10.93,10.93,0,0,0-4-4.68A12,12,0,0,0,1351.55,337.27Z" transform="translate(0)"/>
    <path class="cls-1" d="M1488.89,393.84l-5.5-19.71h-31.74L1446,393.84h-23.8l31.1-91.77h27.9l31.49,91.77ZM1473,337.78q-.64-2.31-1.66-6.21c-.69-2.6-1.41-5.27-2.18-8s-1.32-5-1.66-6.78q-.64,2.68-1.8,6.84c-.76,2.78-1.47,5.47-2.11,8.07s-1.17,4.63-1.6,6.08l-5.37,18.3h21.89Z" transform="translate(0)"/>
    <path class="cls-1" d="M1543.42,319q0,3.84-.26,7.49t-.51,6.21h.77a25.18,25.18,0,0,1,7.36-7.36q4.54-3,12-3a22.38,22.38,0,0,1,18.62,9.22q7.11,9.21,7.11,27,0,11.91-3.33,20.16T1575.87,391a23.7,23.7,0,0,1-13.76,4.09q-7.42,0-11.65-2.69a30.61,30.61,0,0,1-7-6h-1.54l-3.32,7.42h-16.77V296.56h21.63Zm11.9,20.35a11.55,11.55,0,0,0-6.84,1.86,10.28,10.28,0,0,0-3.78,5.57,34.92,34.92,0,0,0-1.28,9.47v2.69q0,9.21,2.62,14t9.54,4.8q5.12,0,8.06-5t2.95-14.46q0-9.35-2.88-14.15A9.22,9.22,0,0,0,1555.32,339.31Z" transform="translate(0)"/>
    <path class="cls-1" d="M1633.79,322.29a37.45,37.45,0,0,1,17.15,3.65,25.94,25.94,0,0,1,11.13,10.75q4,7.11,4,17.6v10h-44.41a15.71,15.71,0,0,0,4.48,11.08q4.22,4.15,12,4.16a51.86,51.86,0,0,0,12.22-1.35,58,58,0,0,0,11.46-4.16v16a41.92,41.92,0,0,1-11,3.91,73.84,73.84,0,0,1-14.59,1.21,43.94,43.94,0,0,1-18.75-3.84,28.6,28.6,0,0,1-12.93-11.84q-4.68-8-4.67-20.29,0-12.54,4.28-20.73a27.79,27.79,0,0,1,11.91-12.16A37.75,37.75,0,0,1,1633.79,322.29Zm.38,15a11.49,11.49,0,0,0-8.19,3.13q-3.33,3.14-4,9.92h24.19a15.92,15.92,0,0,0-1.34-6.65,10.93,10.93,0,0,0-4-4.68A12,12,0,0,0,1634.17,337.27Z" transform="translate(0)"/>
    <path class="cls-1" d="M1721.59,322.29c1.11,0,2.35.06,3.71.19a27.43,27.43,0,0,1,3.2.45l-1.79,20.22c-.76-.17-1.75-.34-2.94-.51a28.43,28.43,0,0,0-4-.25,24.53,24.53,0,0,0-6.08.76,18.69,18.69,0,0,0-5.63,2.5,11.91,11.91,0,0,0-4.16,4.86,18.28,18.28,0,0,0-1.54,8v35.33h-21.63V323.57H1697l3.32,11.52h.9a27.35,27.35,0,0,1,5.12-6.46,24.7,24.7,0,0,1,7-4.61A20.17,20.17,0,0,1,1721.59,322.29Z" transform="translate(0)"/>
    <path class="cls-1" d="M1193.09,456.05q17.54,0,25.92,7.62t8.38,21.18a37,37,0,0,1-1.85,11.71,27,27,0,0,1-5.89,9.92,27.83,27.83,0,0,1-10.75,6.91q-6.72,2.57-16.71,2.56h-7.68v31.49h-21.76V456.05Zm-.9,17.66h-7.68v24.45h5.76a22.05,22.05,0,0,0,7.87-1.28,10.94,10.94,0,0,0,5.32-4.09,12.71,12.71,0,0,0,1.92-7.3q0-5.76-3.2-8.77T1192.19,473.71Z" transform="translate(0)"/>
    <path class="cls-1" d="M1282.56,475.89c1.11,0,2.35.06,3.71.19a27.76,27.76,0,0,1,3.2.45l-1.79,20.22q-1.15-.25-2.94-.51a28.43,28.43,0,0,0-4-.25,24.53,24.53,0,0,0-6.08.76,18.58,18.58,0,0,0-5.63,2.5,11.91,11.91,0,0,0-4.16,4.86,18.13,18.13,0,0,0-1.54,8v35.33h-21.63V477.17H1258l3.33,11.52h.9a27.35,27.35,0,0,1,5.12-6.46,24.79,24.79,0,0,1,7-4.61A20.26,20.26,0,0,1,1282.56,475.89Z" transform="translate(0)"/>
    <path class="cls-1" d="M1366.14,512.11a46.2,46.2,0,0,1-2.43,15.62,32.42,32.42,0,0,1-6.91,11.52,28.08,28.08,0,0,1-10.88,7.1,41.45,41.45,0,0,1-14.46,2.37,39,39,0,0,1-13.76-2.37,28.6,28.6,0,0,1-10.88-7.1,33.57,33.57,0,0,1-7.11-11.52,44,44,0,0,1-2.56-15.62q0-11.64,4.16-19.64a28.86,28.86,0,0,1,12-12.29q7.8-4.29,18.56-4.29a36.38,36.38,0,0,1,17.79,4.22,30.44,30.44,0,0,1,12.1,12.23Q1366.14,500.34,1366.14,512.11Zm-47.1,0a40.94,40.94,0,0,0,1.28,10.95,13,13,0,0,0,4,6.78,11.34,11.34,0,0,0,7.36,2.24,11.1,11.1,0,0,0,7.23-2.24,13,13,0,0,0,4-6.78,40.94,40.94,0,0,0,1.28-10.95A39.44,39.44,0,0,0,1343,501.3a12.36,12.36,0,0,0-4.1-6.59,11.61,11.61,0,0,0-7.3-2.18q-6.64,0-9.6,4.93T1319,512.11Z" transform="translate(0)"/>
    <path class="cls-1" d="M1403.77,475.89a23.94,23.94,0,0,1,11.84,2.69,23.33,23.33,0,0,1,8,7.42h.52l1.66-8.83h18.43v70.4q0,10-4,16.77a25,25,0,0,1-12,10.3q-8.06,3.52-20.22,3.52a105.37,105.37,0,0,1-14.34-.89,56.89,56.89,0,0,1-12.41-3.2V556.53a77.29,77.29,0,0,0,12.67,4,65.46,65.46,0,0,0,14.08,1.41q7.43,0,11.07-3.4t3.65-10v-1.28c0-1.37.06-2.8.19-4.29s.28-3,.45-4.55h-.64a21.51,21.51,0,0,1-7.87,7.68,23,23,0,0,1-11.46,2.69,22.21,22.21,0,0,1-18.88-9.47q-7-9.46-7-26.88t7.17-27A22.75,22.75,0,0,1,1403.77,475.89Zm7.56,17a10.06,10.06,0,0,0-6.66,2.24,13.2,13.2,0,0,0-4,6.66,40,40,0,0,0-1.28,10.94q0,9.87,2.95,14.53t9.21,4.67a15.56,15.56,0,0,0,5.83-1,8.54,8.54,0,0,0,3.84-3.07,15.8,15.8,0,0,0,2.24-5.31,34.15,34.15,0,0,0,.76-7.81v-2.56a38.18,38.18,0,0,0-1.28-10.88,12,12,0,0,0-4-6.33Q1416.19,492.92,1411.33,492.91Z" transform="translate(0)"/>
    <path class="cls-1" d="M1503.61,475.89c1.11,0,2.35.06,3.71.19a27.43,27.43,0,0,1,3.2.45l-1.79,20.22q-1.15-.25-2.94-.51a28.43,28.43,0,0,0-4-.25,24.53,24.53,0,0,0-6.08.76,18.69,18.69,0,0,0-5.63,2.5,11.91,11.91,0,0,0-4.16,4.86,18.13,18.13,0,0,0-1.54,8v35.33h-21.63V477.17H1479l3.32,11.52h.9a27.35,27.35,0,0,1,5.12-6.46,24.7,24.7,0,0,1,7-4.61A20.17,20.17,0,0,1,1503.61,475.89Z" transform="translate(0)"/>
    <path class="cls-1" d="M1553.28,475.89q13.7,0,21.18,6.27T1582,501v46.46H1567.1l-4.22-9.47h-.52a35.74,35.74,0,0,1-6.08,6.14,19.83,19.83,0,0,1-7.23,3.52,38.55,38.55,0,0,1-9.85,1.09,24.74,24.74,0,0,1-11.08-2.43,17.86,17.86,0,0,1-7.74-7.42q-2.82-5-2.82-12.68,0-11.13,7.88-16.57t23.23-5.95l11.9-.39v-2.17c0-3.42-.87-5.89-2.62-7.43a10.62,10.62,0,0,0-7.23-2.3,35.08,35.08,0,0,0-9.67,1.41,74.43,74.43,0,0,0-10,3.71l-6.52-14.34a50.75,50.75,0,0,1,13-4.67A73.27,73.27,0,0,1,1553.28,475.89Zm.76,39.68q-8.05.39-11.26,3a8.57,8.57,0,0,0-3.2,7q0,4.11,2.24,5.89a9.22,9.22,0,0,0,6,1.79,13.46,13.46,0,0,0,9.15-3.26,11.15,11.15,0,0,0,3.78-8.9v-5.63Z" transform="translate(0)"/>
    <path class="cls-1" d="M1684.35,475.89q12,0,18.3,6.14t6.27,19.59v45.82h-21.63V507.63q0-7.8-2.37-11.26c-1.58-2.3-4-3.46-7.23-3.46q-6.78,0-9.6,5.32t-2.81,15.16v34.05h-21.51V507.63a28.13,28.13,0,0,0-1-8.25,9.64,9.64,0,0,0-3.08-4.87,8.28,8.28,0,0,0-5.24-1.6,10.59,10.59,0,0,0-7.62,2.63,14.57,14.57,0,0,0-3.84,7.61,59.23,59.23,0,0,0-1.09,12.29v32h-21.63V477.17h16.38l3.08,8.83h.89a19.5,19.5,0,0,1,5.12-5.57,22.66,22.66,0,0,1,7-3.39,30.63,30.63,0,0,1,8.58-1.15,29.3,29.3,0,0,1,12.93,2.56,19.18,19.18,0,0,1,8.19,7.42h1.28a20,20,0,0,1,8.77-7.55A28.66,28.66,0,0,1,1684.35,475.89Z" transform="translate(0)"/>
    <path class="cls-1" d="M1811.07,475.89q12,0,18.3,6.14t6.27,19.59v45.82H1814V507.63q0-7.8-2.37-11.26c-1.58-2.3-4-3.46-7.23-3.46q-6.78,0-9.6,5.32T1792,513.39v34.05h-21.5V507.63a28.13,28.13,0,0,0-1-8.25,9.64,9.64,0,0,0-3.08-4.87,8.28,8.28,0,0,0-5.24-1.6,10.58,10.58,0,0,0-7.62,2.63,14.42,14.42,0,0,0-3.84,7.61,58.55,58.55,0,0,0-1.09,12.29v32H1727V477.17h16.38l3.08,8.83h.89a19.5,19.5,0,0,1,5.12-5.57,22.66,22.66,0,0,1,7-3.39,30.63,30.63,0,0,1,8.58-1.15,29.3,29.3,0,0,1,12.93,2.56,19.3,19.3,0,0,1,8.19,7.42h1.28a20,20,0,0,1,8.77-7.55A28.66,28.66,0,0,1,1811.07,475.89Z" transform="translate(0)"/>
    <path class="cls-1" d="M1864.57,449.27a16.15,16.15,0,0,1,8.25,2q3.53,2.06,3.52,7.94t-3.52,7.87a15.7,15.7,0,0,1-8.25,2.11,14.74,14.74,0,0,1-8.07-2.11c-2.22-1.41-3.32-4-3.32-7.87s1.1-6.57,3.32-7.94A15.16,15.16,0,0,1,1864.57,449.27Zm10.75,27.9v70.27h-21.5V477.17Z" transform="translate(0)"/>
    <path class="cls-1" d="M1935.74,475.89q11.13,0,18,6.08t6.85,19.65v45.82h-21.51V507.63q0-7.29-2.43-11t-7.68-3.72q-7.93,0-10.69,5.83t-2.75,16.7v32h-21.63V477.17h16.38l3,9.09h1a22,22,0,0,1,5.51-5.76A23,23,0,0,1,1927,477,31.93,31.93,0,0,1,1935.74,475.89Z" transform="translate(0)"/>
    <path class="cls-1" d="M2001.4,475.89a24,24,0,0,1,11.84,2.69,23.33,23.33,0,0,1,8,7.42h.51l1.67-8.83h18.43v70.4q0,10-4,16.77a25.08,25.08,0,0,1-12,10.3q-8.07,3.52-20.23,3.52a105.11,105.11,0,0,1-14.33-.89,57,57,0,0,1-12.42-3.2V556.53a77.59,77.59,0,0,0,12.67,4,65.52,65.52,0,0,0,14.08,1.41q7.43,0,11.08-3.4t3.64-10v-1.28c0-1.37.07-2.8.2-4.29s.27-3,.44-4.55h-.64a21.51,21.51,0,0,1-7.87,7.68,23,23,0,0,1-11.45,2.69,22.21,22.21,0,0,1-18.88-9.47q-7-9.46-7-26.88t7.17-27A22.74,22.74,0,0,1,2001.4,475.89Zm7.55,17a10.1,10.1,0,0,0-6.66,2.24,13.19,13.19,0,0,0-4,6.66,39.61,39.61,0,0,0-1.28,10.94q0,9.87,2.94,14.53t9.22,4.67a15.54,15.54,0,0,0,5.82-1,8.44,8.44,0,0,0,3.84-3.07,15.6,15.6,0,0,0,2.24-5.31,34.1,34.1,0,0,0,.77-7.81v-2.56a38.54,38.54,0,0,0-1.28-10.88,12.06,12.06,0,0,0-4-6.33A12.26,12.26,0,0,0,2009,492.91Z" transform="translate(0)"/>
    <path class="cls-1" d="M1162.75,701V609.65h21.76v73.6h36.23V701Z" transform="translate(0)"/>
    <path class="cls-1" d="M1266.05,629.49q13.7,0,21.18,6.27t7.49,18.82V701h-14.85l-4.22-9.47h-.51a36.1,36.1,0,0,1-6.08,6.14,20,20,0,0,1-7.24,3.52,38.55,38.55,0,0,1-9.85,1.09,24.66,24.66,0,0,1-11.07-2.43,17.83,17.83,0,0,1-7.75-7.42q-2.82-5-2.81-12.68,0-11.13,7.87-16.57t23.23-6l11.9-.39v-2.17c0-3.42-.87-5.89-2.62-7.43a10.62,10.62,0,0,0-7.23-2.3,35.08,35.08,0,0,0-9.67,1.41,73.82,73.82,0,0,0-10,3.71l-6.53-14.34a50.75,50.75,0,0,1,13-4.67A73.34,73.34,0,0,1,1266.05,629.49Zm.77,39.68q-8.07.39-11.27,3a8.57,8.57,0,0,0-3.2,7q0,4.11,2.24,5.89a9.22,9.22,0,0,0,6,1.79,13.51,13.51,0,0,0,9.16-3.26,11.17,11.17,0,0,0,3.77-8.9V669Z" transform="translate(0)"/>
    <path class="cls-1" d="M1354.88,629.49q11.13,0,18,6.08t6.85,19.65V701h-21.5V661.23q0-7.29-2.44-11t-7.68-3.72q-7.93,0-10.68,5.83t-2.76,16.7v32H1313V630.77h16.39l2.94,9.09h1a21.92,21.92,0,0,1,5.5-5.76,23,23,0,0,1,7.29-3.46A32,32,0,0,1,1354.88,629.49Z" transform="translate(0)"/>
    <path class="cls-1" d="M1420.54,629.49a24,24,0,0,1,11.84,2.69,23.33,23.33,0,0,1,8,7.42h.51l1.67-8.83H1461v70.4q0,10-4,16.77a25,25,0,0,1-12,10.3q-8.07,3.53-20.22,3.52a105.27,105.27,0,0,1-14.34-.89,57,57,0,0,1-12.42-3.2V710.13a77.39,77.39,0,0,0,12.68,4,65.46,65.46,0,0,0,14.08,1.41c4.94,0,8.64-1.14,11.07-3.4s3.65-5.61,3.65-10v-1.28c0-1.37.06-2.8.19-4.29s.27-3,.45-4.55h-.64a21.53,21.53,0,0,1-7.88,7.68,23,23,0,0,1-11.45,2.69,22.21,22.21,0,0,1-18.88-9.47q-7-9.47-7-26.88t7.17-27A22.75,22.75,0,0,1,1420.54,629.49Zm7.55,17a10.05,10.05,0,0,0-6.65,2.24,13.2,13.2,0,0,0-4,6.66,40,40,0,0,0-1.28,10.94q0,9.87,2.94,14.53t9.22,4.67a15.54,15.54,0,0,0,5.82-1,8.44,8.44,0,0,0,3.84-3.07,15.6,15.6,0,0,0,2.24-5.31,33.55,33.55,0,0,0,.77-7.81v-2.56a38.54,38.54,0,0,0-1.28-10.88,12.1,12.1,0,0,0-4-6.33C1433.87,647.22,1431.34,646.51,1428.09,646.51Z" transform="translate(0)"/>
    <path class="cls-1" d="M1546,630.77V701H1529.6l-2.95-8.83h-1.15A17.86,17.86,0,0,1,1520,698a25.28,25.28,0,0,1-7.43,3.26,32.58,32.58,0,0,1-8.45,1.09,29.26,29.26,0,0,1-12.8-2.69,19.33,19.33,0,0,1-8.76-8.38q-3.15-5.7-3.14-14.78v-45.7h21.5v39.81q0,7.17,2.37,10.88t7.49,3.71c3.58,0,6.36-.85,8.32-2.56a13.8,13.8,0,0,0,4.1-7.55,56.21,56.21,0,0,0,1.15-12.29v-32Z" transform="translate(0)"/>
    <path class="cls-1" d="M1595.9,629.49q13.69,0,21.18,6.27t7.49,18.82V701h-14.85l-4.22-9.47H1605a36.1,36.1,0,0,1-6.08,6.14,19.83,19.83,0,0,1-7.23,3.52,38.69,38.69,0,0,1-9.86,1.09,24.66,24.66,0,0,1-11.07-2.43,17.83,17.83,0,0,1-7.75-7.42q-2.8-5-2.81-12.68,0-11.13,7.87-16.57t23.23-6l11.91-.39v-2.17c0-3.42-.88-5.89-2.63-7.43a10.62,10.62,0,0,0-7.23-2.3,35,35,0,0,0-9.66,1.41,73.44,73.44,0,0,0-10,3.71l-6.53-14.34a50.69,50.69,0,0,1,13.06-4.67A73.18,73.18,0,0,1,1595.9,629.49Zm.77,39.68q-8.07.39-11.27,3a8.57,8.57,0,0,0-3.2,7q0,4.11,2.24,5.89a9.24,9.24,0,0,0,6,1.79,13.5,13.5,0,0,0,9.15-3.26,11.17,11.17,0,0,0,3.77-8.9V669Z" transform="translate(0)"/>
    <path class="cls-1" d="M1665.53,629.49a24,24,0,0,1,11.84,2.69,23.33,23.33,0,0,1,8,7.42h.51l1.67-8.83H1706v70.4q0,10-4,16.77a25.08,25.08,0,0,1-12,10.3q-8.07,3.53-20.23,3.52a105.11,105.11,0,0,1-14.33-.89,57,57,0,0,1-12.42-3.2V710.13a77.59,77.59,0,0,0,12.67,4,65.52,65.52,0,0,0,14.08,1.41q7.43,0,11.08-3.4t3.64-10v-1.28c0-1.37.07-2.8.2-4.29s.27-3,.44-4.55h-.64a21.43,21.43,0,0,1-7.87,7.68,23,23,0,0,1-11.45,2.69,22.21,22.21,0,0,1-18.88-9.47q-7-9.47-7-26.88t7.17-27A22.74,22.74,0,0,1,1665.53,629.49Zm7.55,17a10.05,10.05,0,0,0-6.65,2.24,13.13,13.13,0,0,0-4,6.66,39.61,39.61,0,0,0-1.28,10.94q0,9.87,2.94,14.53t9.22,4.67a15.54,15.54,0,0,0,5.82-1,8.44,8.44,0,0,0,3.84-3.07,15.6,15.6,0,0,0,2.24-5.31,34.1,34.1,0,0,0,.77-7.81v-2.56a38.54,38.54,0,0,0-1.28-10.88,12.1,12.1,0,0,0-4-6.33A12.26,12.26,0,0,0,1673.08,646.51Z" transform="translate(0)"/>
    <path class="cls-1" d="M1754.87,629.49a37.42,37.42,0,0,1,17.15,3.65,26,26,0,0,1,11.14,10.75q4,7.11,4,17.6v10h-44.42a15.75,15.75,0,0,0,4.48,11.08q4.23,4.16,12,4.16a51.88,51.88,0,0,0,12.23-1.35,57.7,57.7,0,0,0,11.45-4.16v16a41.72,41.72,0,0,1-11,3.91,73.88,73.88,0,0,1-14.6,1.21,44,44,0,0,1-18.75-3.84,28.7,28.7,0,0,1-12.93-11.84q-4.66-8-4.67-20.29,0-12.54,4.29-20.73a27.82,27.82,0,0,1,11.9-12.16A37.8,37.8,0,0,1,1754.87,629.49Zm.39,15a11.5,11.5,0,0,0-8.2,3.13q-3.33,3.14-4,9.92h24.19a15.77,15.77,0,0,0-1.35-6.65,10.91,10.91,0,0,0-4-4.68A12,12,0,0,0,1755.26,644.47Z" transform="translate(0)"/>
  </g>
</svg>
